# xmcd CD database file
#
# Track frame offsets:
#	150
#	21477
#	48740
#	72690
#	99020
#	123120
#	153430
#	170627
#	193717
#	200660
#	225090
#	243250
#
# Disc length: 3404 seconds
#
# Revision: 0
# Processed by: cddbd v1.5PL3 Copyright (c) Steve Scherf et al.
# Submitted via: CDex 1.51
#
DISCID=9f0d4a0c
DTITLE=Thierry Péala - Inner Trace
DYEAR=2000
DGENRE=Jazz
TTITLE0=Who are you 
TTITLE1=Inner Traces
TTITLE2=Smatter
TTITLE3=Everybody's song but My owner
TTITLE4=I Wonder
TTITLE5=Child Of Tommorow
TTITLE6=Of Smiles Remenbered
TTITLE7=Bereaved swan
TTITLE8=546
TTITLE9=Widow in The Window
TTITLE10=Mark Time
TTITLE11=Only a Dream 
EXTD=YEAR: 2000
EXTT0=
EXTT1=
EXTT2=
EXTT3=
EXTT4=
EXTT5=
EXTT6=
EXTT7=
EXTT8=
EXTT9=
EXTT10=
EXTT11=
PLAYORDER=
